<svg xmlns="http://www.w3.org/2000/svg" width="14" height="14" viewBox="0 0 14 14">
  <path fill="#7B0" d="M6,12 C9.3137085,12 12,9.3137085 12,6 C12,2.6862915 9.3137085,-2.22044605e-16 6,-2.22044605e-16 C2.6862915,-2.22044605e-16 0,2.6862915 0,6 C0,9.3137085 2.6862915,12 6,12 Z M7.05774993,7.99974993 L5.334,6.276 L5.334,3.3335 C5.334,2.96540221 5.63240221,2.667 6.0005,2.667 L6.0005,2.667 C6.36859779,2.667 6.667,2.96540221 6.667,3.3335 L6.667,5.724 L8.00074993,7.05774993 C8.26087612,7.31787612 8.26087612,7.73962401 8.00074993,7.9997502 C8.00066664,7.99983349 8.00058333,7.99991676 8.0005,8 L8.0005,8 C7.74005729,8.26016653 7.31805459,8.26005459 7.05774993,7.99974993 Z" transform="translate(1 1)"/>
</svg>
