<?xml version="1.0" standalone="no"?>
<!DOCTYPE svg PUBLIC "-//W3C//DTD SVG 20010904//EN"
 "http://www.w3.org/TR/2001/REC-SVG-20010904/DTD/svg10.dtd">
<svg version="1.0" xmlns="http://www.w3.org/2000/svg"
 width="700.000000pt" height="700.000000pt" viewBox="0 0 700.000000 700.000000"
 preserveAspectRatio="xMidYMid meet">
<metadata>
Created by potrace 1.11, written by Peter Selinger 2001-2013
</metadata>
<g transform="translate(0.000000,700.000000) scale(0.100000,-0.100000)"
fill="#000000" stroke="none">
<path d="M3309 6496 c-2 -2 -40 -6 -84 -10 -44 -3 -89 -8 -100 -10 -11 -2 -45
-7 -75 -11 -30 -4 -85 -13 -122 -21 -37 -7 -81 -16 -97 -19 -61 -11 -273 -76
-388 -118 -148 -56 -323 -138 -439 -207 -87 -51 -294 -187 -304 -199 -3 -4
-25 -22 -50 -41 -248 -189 -523 -494 -697 -776 -189 -305 -347 -708 -398
-1014 -3 -19 -10 -61 -16 -93 -41 -232 -46 -605 -13 -872 37 -300 137 -627
282 -926 343 -702 967 -1256 1699 -1509 120 -42 345 -103 418 -114 22 -4 47
-8 55 -11 13 -3 58 -10 145 -21 205 -26 563 -26 760 1 379 51 764 178 1080
357 83 48 300 188 342 222 159 128 198 163 313 276 443 438 748 1034 841 1645
6 39 12 81 15 95 25 144 25 676 0 751 -3 8 -7 37 -10 64 -27 285 -185 748
-359 1050 -190 330 -477 662 -752 871 -27 21 -54 42 -60 47 -117 96 -416 271
-585 342 -36 15 -80 34 -98 42 -98 43 -340 115 -496 148 -109 23 -134 27 -246
41 -30 4 -66 9 -80 11 -31 5 -476 13 -481 9z m290 -1346 c92 -24 195 -131 222
-230 10 -33 13 -200 13 -664 l1 -619 336 -336 c184 -185 347 -352 362 -372
108 -144 68 -368 -83 -467 -106 -69 -216 -76 -339 -20 -32 15 -162 138 -494
469 l-450 450 0 757 c0 551 4 769 12 800 23 84 91 170 168 210 67 36 168 45
252 22z"/>
</g>
</svg>
